<svg id="visual" viewBox="0 0 900 600" width="900" height="600" xmlns="http://www.w3.org/2000/svg" xmlns:xlink="http://www.w3.org/1999/xlink" version="1.1"><path d="M0 49L13.7 48C27.3 47 54.7 45 82 53C109.3 61 136.7 79 163.8 81C191 83 218 69 245.2 72C272.3 75 299.7 95 327 97C354.3 99 381.7 83 409 75C436.3 67 463.7 67 491 70C518.3 73 545.7 79 573 86C600.3 93 627.7 101 654.8 97C682 93 709 77 736.2 77C763.3 77 790.7 93 818 92C845.3 91 872.7 73 886.3 64L900 55L900 0L886.3 0C872.7 0 845.3 0 818 0C790.7 0 763.3 0 736.2 0C709 0 682 0 654.8 0C627.7 0 600.3 0 573 0C545.7 0 518.3 0 491 0C463.7 0 436.3 0 409 0C381.7 0 354.3 0 327 0C299.7 0 272.3 0 245.2 0C218 0 191 0 163.8 0C136.7 0 109.3 0 82 0C54.7 0 27.3 0 13.7 0L0 0Z" fill="#6198ff"></path><path d="M0 187L13.7 186C27.3 185 54.7 183 82 191C109.3 199 136.7 217 163.8 218C191 219 218 203 245.2 198C272.3 193 299.7 199 327 201C354.3 203 381.7 201 409 204C436.3 207 463.7 215 491 208C518.3 201 545.7 179 573 201C600.3 223 627.7 289 654.8 287C682 285 709 215 736.2 205C763.3 195 790.7 245 818 262C845.3 279 872.7 263 886.3 255L900 247L900 53L886.3 62C872.7 71 845.3 89 818 90C790.7 91 763.3 75 736.2 75C709 75 682 91 654.8 95C627.7 99 600.3 91 573 84C545.7 77 518.3 71 491 68C463.7 65 436.3 65 409 73C381.7 81 354.3 97 327 95C299.7 93 272.3 73 245.2 70C218 67 191 81 163.8 79C136.7 77 109.3 59 82 51C54.7 43 27.3 45 13.7 46L0 47Z" fill="#3c80ff"></path><path d="M0 253L13.7 268C27.3 283 54.7 313 82 329C109.3 345 136.7 347 163.8 343C191 339 218 329 245.2 320C272.3 311 299.7 303 327 300C354.3 297 381.7 299 409 313C436.3 327 463.7 353 491 352C518.3 351 545.7 323 573 331C600.3 339 627.7 383 654.8 381C682 379 709 331 736.2 331C763.3 331 790.7 379 818 401C845.3 423 872.7 419 886.3 417L900 415L900 245L886.3 253C872.7 261 845.3 277 818 260C790.7 243 763.3 193 736.2 203C709 213 682 283 654.8 285C627.7 287 600.3 221 573 199C545.7 177 518.3 199 491 206C463.7 213 436.3 205 409 202C381.7 199 354.3 201 327 199C299.7 197 272.3 191 245.2 196C218 201 191 217 163.8 216C136.7 215 109.3 197 82 189C54.7 181 27.3 183 13.7 184L0 185Z" fill="#0066ff"></path><path d="M0 289L13.7 309C27.3 329 54.7 369 82 385C109.3 401 136.7 393 163.8 394C191 395 218 405 245.2 400C272.3 395 299.7 375 327 372C354.3 369 381.7 383 409 403C436.3 423 463.7 449 491 445C518.3 441 545.7 407 573 412C600.3 417 627.7 461 654.8 459C682 457 709 409 736.2 413C763.3 417 790.7 473 818 491C845.3 509 872.7 489 886.3 479L900 469L900 413L886.3 415C872.7 417 845.3 421 818 399C790.7 377 763.3 329 736.2 329C709 329 682 377 654.8 379C627.7 381 600.3 337 573 329C545.7 321 518.3 349 491 350C463.7 351 436.3 325 409 311C381.7 297 354.3 295 327 298C299.7 301 272.3 309 245.2 318C218 327 191 337 163.8 341C136.7 345 109.3 343 82 327C54.7 311 27.3 281 13.7 266L0 251Z" fill="#0059dd"></path><path d="M0 601L13.7 601C27.3 601 54.7 601 82 601C109.3 601 136.7 601 163.8 601C191 601 218 601 245.2 601C272.3 601 299.7 601 327 601C354.3 601 381.7 601 409 601C436.3 601 463.7 601 491 601C518.3 601 545.7 601 573 601C600.3 601 627.7 601 654.8 601C682 601 709 601 736.2 601C763.3 601 790.7 601 818 601C845.3 601 872.7 601 886.3 601L900 601L900 467L886.3 477C872.7 487 845.3 507 818 489C790.7 471 763.3 415 736.2 411C709 407 682 455 654.8 457C627.7 459 600.3 415 573 410C545.7 405 518.3 439 491 443C463.7 447 436.3 421 409 401C381.7 381 354.3 367 327 370C299.7 373 272.3 393 245.2 398C218 403 191 393 163.8 392C136.7 391 109.3 399 82 383C54.7 367 27.3 327 13.7 307L0 287Z" fill="#004cbb"></path></svg>